<svg xmlns="http://www.w3.org/2000/svg" viewBox="0 0 64.21 69.19"><defs><style>.cls-1{fill:#eb7025;}</style></defs><g id="Layer_2" data-name="Layer 2"><g id="Layer_1-2" data-name="Layer 1"><path class="cls-1" d="M41.9,0V7.53H10.2v0A7.49,7.49,0,0,1,17.69,0Z"/><path class="cls-1" d="M54,35.31a7.55,7.55,0,0,1-7.55,7.52H22.32V35.31Z"/><rect class="cls-1" x="44.4" y="1.77" width="9.61" height="3.99"/><rect class="cls-1" x="34.79" y="11.9" width="9.61" height="3.99"/><rect class="cls-1" x="27.31" y="19.42" width="9.61" height="3.99"/><rect class="cls-1" x="19.81" y="26.95" width="9.61" height="3.99"/><rect class="cls-1" x="10.2" y="37.08" width="9.61" height="3.99"/><path class="cls-1" d="M5.38,62.33H0s0,0,0,0a.18.18,0,0,1,0-.09l3.57-5.92s0,0-.08,0H2.65a1.93,1.93,0,0,0-1.54.53,1.94,1.94,0,0,0-.46,1.35s0,0-.09,0-.09,0-.09,0v-2s0,0,.05,0H5.3s0,0,0,.1L1.75,62.1s0,0,.06,0H3a2.88,2.88,0,0,0,1-.16,2,2,0,0,0,.69-.44,1.7,1.7,0,0,0,.39-.66,2.78,2.78,0,0,0,.12-.83s0,0,.07,0,.09,0,.09,0v2.22S5.41,62.33,5.38,62.33Z"/><path class="cls-1" d="M12.59,58.84H8.3v.36c0,.43,0,.79,0,1.09a6.36,6.36,0,0,0,.1.77,2.43,2.43,0,0,0,.18.54A1.25,1.25,0,0,0,8.9,62a.81.81,0,0,0,.41.25,1.7,1.7,0,0,0,.53.07,2.92,2.92,0,0,0,1.47-.37A3,3,0,0,0,12.37,61s0,0,.07,0,0,0,0,.06a3.19,3.19,0,0,1-2.63,1.4,3.11,3.11,0,0,1-1.25-.26,3.15,3.15,0,0,1-1-.7,3.33,3.33,0,0,1-.69-1,3.2,3.2,0,0,1-.25-1.27,3.16,3.16,0,0,1,.25-1.27,3.26,3.26,0,0,1,.69-1,3.31,3.31,0,0,1,1-.7,3.1,3.1,0,0,1,1.25-.25,2.47,2.47,0,0,1,1.24.3A3,3,0,0,1,12,57a3.3,3.3,0,0,1,.52.93,3,3,0,0,1,.17.9S12.62,58.84,12.59,58.84ZM11,57.23a2.05,2.05,0,0,0-.35-.8.87.87,0,0,0-.37-.25,1.29,1.29,0,0,0-.45-.07,1.7,1.7,0,0,0-.53.07.88.88,0,0,0-.41.25,1.67,1.67,0,0,0-.44.8,6.33,6.33,0,0,0-.15,1.44h2.85A7.74,7.74,0,0,0,11,57.23Z"/><path class="cls-1" d="M22,62.33s0,0,0-.09,0-.09,0-.09h.83c.07,0,.11,0,.11-.06V57.61a1.93,1.93,0,0,0-.27-1.15.82.82,0,0,0-.66-.35,1.81,1.81,0,0,0-.76.15,1.67,1.67,0,0,0-.54.37,1.3,1.3,0,0,0-.32.49,1.43,1.43,0,0,0-.11.52v4.45s0,.06.11.06h.85s0,0,0,.09,0,.09,0,.09H17.78s0,0,0-.09,0-.09,0-.09h.82q.09,0,.09-.06V57.61a2,2,0,0,0-.25-1.15.77.77,0,0,0-.64-.35,1.66,1.66,0,0,0-1.11.35,2.21,2.21,0,0,0-.61,1v4.63s0,.06.09.06H17s0,0,0,.09,0,.09,0,.09H13.53s0,0,0-.09,0-.09,0-.09h.84c.07,0,.1,0,.1-.06V56.3s0-.06-.1-.06h-.84s0,0,0-.08,0-.09,0-.09H16s0,0,0,0v1a1.8,1.8,0,0,1,.29-.53,1.79,1.79,0,0,1,.43-.35,2.1,2.1,0,0,1,.49-.2,2.37,2.37,0,0,1,.52-.06,3.37,3.37,0,0,1,1.62.33,1.76,1.76,0,0,1,.81.88,1.56,1.56,0,0,1,.74-.93A2.18,2.18,0,0,1,22,55.94a3.07,3.07,0,0,1,1.84.48,1.9,1.9,0,0,1,.67,1.66v4s0,.06.1.06h.85s0,0,0,.09,0,.09,0,.09Z"/><path class="cls-1" d="M32,62.26a1.55,1.55,0,0,1-.76.18,1.6,1.6,0,0,1-.89-.27,1,1,0,0,1-.48-.68,1.44,1.44,0,0,1-1.54.95,3.27,3.27,0,0,1-.76-.08,2.11,2.11,0,0,1-.69-.26,1.4,1.4,0,0,1-.5-.47,1.28,1.28,0,0,1-.19-.73,1.65,1.65,0,0,1,.24-.93,1.69,1.69,0,0,1,.57-.56,2.25,2.25,0,0,1,.69-.27l.57-.11.6-.05a4.56,4.56,0,0,0,.49-.08,1.4,1.4,0,0,0,.33-.11.22.22,0,0,0,.13-.2V57.48a2.73,2.73,0,0,0-.07-.71.91.91,0,0,0-.19-.42.55.55,0,0,0-.3-.2,1.13,1.13,0,0,0-.38,0,1.29,1.29,0,0,0-.53.11.53.53,0,0,0-.23.52.53.53,0,0,0,.07.31.68.68,0,0,1,.07.31.54.54,0,0,1-.18.38.74.74,0,0,1-.56.17.58.58,0,0,1-.52-.22.81.81,0,0,1-.16-.48.75.75,0,0,1,.15-.44,1.5,1.5,0,0,1,.42-.41A2.12,2.12,0,0,1,28,56a2.78,2.78,0,0,1,.83-.12,2.59,2.59,0,0,1,1.85.64,2.64,2.64,0,0,1,.69,2v3a.62.62,0,0,0,.09.38.32.32,0,0,0,.26.12.58.58,0,0,0,.34-.11.45.45,0,0,0,.17-.23s0,0,.08,0,0,.05,0,.07A.81.81,0,0,1,32,62.26ZM29.8,58.9a1.38,1.38,0,0,1-.6.2l-.67.1a1.27,1.27,0,0,0-.33.12.58.58,0,0,0-.24.27,1.35,1.35,0,0,0-.15.5,5.82,5.82,0,0,0,0,.81,1.85,1.85,0,0,0,.2,1,.72.72,0,0,0,.63.27,1.09,1.09,0,0,0,.88-.39,1.36,1.36,0,0,0,.33-.91Z"/><path class="cls-1" d="M37,62.33s0,0,0-.09,0-.09,0-.09h.74q.11,0,.06-.06L35.3,59v3.13s0,.06.09.06h.84s0,0,0,.09,0,.09,0,.09H32.75s0,0,0-.09,0-.09,0-.09h.84c.07,0,.1,0,.1-.06V51.76s0,0-.1,0h-.84s0,0,0-.09,0-.09,0-.09h2.49s.06,0,.06,0v7.3l2.3-2c.32-.28.5-.46.56-.52s.06-.1,0-.1h-1s0,0,0-.08,0-.09,0-.09h2.28s0,0,0,.09,0,.08,0,.08h-.82l-.09,0a.56.56,0,0,0-.15.08l-.23.18c-.1.08-.23.19-.39.34l-1.4,1.23,3.14,4a.18.18,0,0,0,.15.06h1s0,0,0,.09,0,.09,0,.09Z"/><path class="cls-1" d="M46.34,58.84H42v.36c0,.43,0,.79,0,1.09a6.36,6.36,0,0,0,.1.77,2.43,2.43,0,0,0,.18.54,1.45,1.45,0,0,0,.28.36.81.81,0,0,0,.41.25,1.7,1.7,0,0,0,.53.07,2.89,2.89,0,0,0,1.47-.37A3,3,0,0,0,46.11,61s0,0,.07,0,0,0,0,.06a3.3,3.3,0,0,1-1.14,1,3.1,3.1,0,0,1-1.5.38,3.21,3.21,0,0,1-2.95-2,3.21,3.21,0,0,1-.26-1.27,3.17,3.17,0,0,1,.26-1.27,3.08,3.08,0,0,1,.68-1,3.31,3.31,0,0,1,1-.7,3.14,3.14,0,0,1,1.25-.25,2.45,2.45,0,0,1,1.24.3,2.89,2.89,0,0,1,.88.73,3.26,3.26,0,0,1,.51.93,3,3,0,0,1,.17.9S46.37,58.84,46.34,58.84Zm-1.58-1.61a1.92,1.92,0,0,0-.36-.8.81.81,0,0,0-.37-.25,1.25,1.25,0,0,0-.45-.07,1.7,1.7,0,0,0-.53.07.88.88,0,0,0-.41.25,1.66,1.66,0,0,0-.43.8,6.33,6.33,0,0,0-.15,1.44h2.85A7.74,7.74,0,0,0,44.76,57.23Z"/><path class="cls-1" d="M52.2,62.08a3.16,3.16,0,0,1-1.51.38,3,3,0,0,1-1.23-.26,3.21,3.21,0,0,1-1-.7,3.48,3.48,0,0,1-.68-1,3.21,3.21,0,0,1-.26-1.27,3.17,3.17,0,0,1,.26-1.27,3.22,3.22,0,0,1,1.69-1.74,3,3,0,0,1,1.23-.25,2.93,2.93,0,0,1,1,.14,2.84,2.84,0,0,1,.76.38,2,2,0,0,1,.48.53,1.2,1.2,0,0,1,.17.58.63.63,0,0,1-.19.51.74.74,0,0,1-.49.16.65.65,0,0,1-.49-.17.54.54,0,0,1-.17-.39.65.65,0,0,1,0-.22,1.16,1.16,0,0,1,.06-.15l.06-.16a1,1,0,0,0,0-.27.62.62,0,0,0-.32-.6,2,2,0,0,0-.89-.17,1.64,1.64,0,0,0-.52.07,1,1,0,0,0-.42.25,1.85,1.85,0,0,0-.25.37,2.06,2.06,0,0,0-.17.53,5.14,5.14,0,0,0-.1.78c0,.3,0,.67,0,1.09s0,.79,0,1.09a4.84,4.84,0,0,0,.1.77,2,2,0,0,0,.17.54,1.36,1.36,0,0,0,.25.36.92.92,0,0,0,.42.25,1.64,1.64,0,0,0,.52.07,3,3,0,0,0,1.49-.37A2.85,2.85,0,0,0,53.24,61s0,0,.07,0,0,0,0,.06A3.13,3.13,0,0,1,52.2,62.08Z"/><path class="cls-1" d="M58.25,62.33s0,0,0-.09,0-.09,0-.09h.84s.08,0,.08-.06V57.61a1.94,1.94,0,0,0-.26-1.15.79.79,0,0,0-.66-.35,1.62,1.62,0,0,0-1.11.35,2.2,2.2,0,0,0-.6,1v4.63s0,.06.08.06h.85s0,0,0,.09,0,.09,0,.09H54s0,0,0-.09,0-.09,0-.09h.83c.07,0,.11,0,.11-.06V51.76s0,0-.11,0H54s0,0,0-.09,0-.09,0-.09h2.5s0,0,0,0v5.51a1.44,1.44,0,0,1,.29-.53,1.69,1.69,0,0,1,.41-.35,2.18,2.18,0,0,1,.5-.2,2.22,2.22,0,0,1,.51-.06,2.59,2.59,0,0,1,1.85.63,2.4,2.4,0,0,1,.67,1.82v3.7s0,.06.1.06h.84s0,0,0,.09,0,.09,0,.09Z"/><path class="cls-1" d="M64,62.25a.84.84,0,0,1-.64.27.82.82,0,0,1-.61-.27.91.91,0,0,1-.25-.65.81.81,0,0,1,.25-.62.85.85,0,0,1,.61-.26A.87.87,0,0,1,64,61a.84.84,0,0,1,.24.62A1,1,0,0,1,64,62.25Z"/><path class="cls-1" d="M16.35,69a1.16,1.16,0,0,1-.47-.46,1.25,1.25,0,0,1,.47-1.75,1.43,1.43,0,0,1,.68-.17,1.51,1.51,0,0,1,.53.09A1.15,1.15,0,0,1,18,67l-.17.16a1.05,1.05,0,0,0-.75-.29,1.14,1.14,0,0,0-.55.13,1,1,0,0,0-.38.37,1.08,1.08,0,0,0-.14.53,1,1,0,0,0,.14.53,1,1,0,0,0,.38.37A1.15,1.15,0,0,0,17,69a1,1,0,0,0,.75-.3l.17.17a1.17,1.17,0,0,1-.41.27,1.46,1.46,0,0,1-.52.09A1.39,1.39,0,0,1,16.35,69Z"/><path class="cls-1" d="M21.75,68.91a1.1,1.1,0,0,1-.27-.81V66.67h.26v1.42a.94.94,0,0,0,.2.65.75.75,0,0,0,.58.22.73.73,0,0,0,.58-.22.94.94,0,0,0,.2-.65V66.67h.26V68.1a1.1,1.1,0,0,1-.27.81,1.2,1.2,0,0,1-1.54,0Z"/><path class="cls-1" d="M27.34,66.67h.27v2.5h-.27Z"/><path class="cls-1" d="M31.56,69.1a1,1,0,0,1-.4-.23l.11-.21a.81.81,0,0,0,.36.22,1.32,1.32,0,0,0,.48.09.92.92,0,0,0,.51-.12.4.4,0,0,0,.17-.32.3.3,0,0,0-.1-.24.55.55,0,0,0-.22-.14L32.09,68a3.25,3.25,0,0,1-.45-.13.78.78,0,0,1-.29-.21.48.48,0,0,1-.13-.36.63.63,0,0,1,.11-.35.73.73,0,0,1,.31-.25,1.31,1.31,0,0,1,.52-.09,1.59,1.59,0,0,1,.43.06,1.46,1.46,0,0,1,.36.16l-.09.21a1.09,1.09,0,0,0-.35-.15,1.06,1.06,0,0,0-.35-.05.86.86,0,0,0-.5.12.42.42,0,0,0-.17.33.32.32,0,0,0,.09.24.59.59,0,0,0,.23.14l.38.11a2.77,2.77,0,0,1,.45.13.72.72,0,0,1,.29.2.52.52,0,0,1,.12.36.62.62,0,0,1-.1.35.73.73,0,0,1-.32.24,1.35,1.35,0,0,1-.52.09A1.71,1.71,0,0,1,31.56,69.1Z"/><path class="cls-1" d="M36.61,66.67h.26v2.5h-.26Z"/><path class="cls-1" d="M42.79,66.67v2.5h-.22l-1.63-2v2h-.27v-2.5h.22l1.64,2v-2Z"/><path class="cls-1" d="M48.38,68.94v.23H46.59v-2.5h1.74v.23H46.86v.89h1.31V68H46.86v.92Z"/><rect class="cls-1" y="67.8" width="14.65" height="0.21"/><rect class="cls-1" x="49.57" y="67.8" width="14.65" height="0.21"/><path class="cls-1" d="M60.31,52.83l-.21-.29h-.31v.29h-.1v-.91H60a.37.37,0,0,1,.27.09.26.26,0,0,1,.1.22.35.35,0,0,1,0,.18.31.31,0,0,1-.16.11l.23.31Zm-.07-.43a.22.22,0,0,0,.07-.17.24.24,0,0,0-.07-.17A.33.33,0,0,0,60,52h-.24v.45H60A.33.33,0,0,0,60.24,52.4Z"/><path class="cls-1" d="M60.05,53.15a.77.77,0,0,1-.77-.77.78.78,0,1,1,.77.77Zm0-1.47a.7.7,0,1,0,.7.7A.69.69,0,0,0,60.05,51.68Z"/></g></g></svg>